<?xml version="1.0" standalone="no"?>
<!DOCTYPE svg PUBLIC "-//W3C//DTD SVG 20010904//EN"
 "http://www.w3.org/TR/2001/REC-SVG-20010904/DTD/svg10.dtd">
<svg version="1.0" xmlns="http://www.w3.org/2000/svg"
 width="2000.000000pt" height="2000.000000pt" viewBox="0 0 2000.000000 2000.000000"
 preserveAspectRatio="xMidYMid meet">

<g transform="translate(0.000000,2000.000000) scale(0.100000,-0.100000)"
fill="#000000" stroke="none">
<path d="M9225 15904 c-298 -30 -498 -78 -576 -137 -24 -19 -62 -45 -85 -59
-74 -47 -453 -248 -629 -334 -161 -79 -179 -90 -238 -153 -71 -76 -85 -101
-214 -400 -86 -202 -135 -290 -236 -426 -33 -44 -64 -91 -70 -105 -7 -14 -35
-54 -63 -90 -28 -36 -71 -94 -95 -130 -44 -66 -176 -320 -218 -420 -13 -30
-39 -91 -58 -135 -18 -44 -54 -132 -80 -195 -25 -63 -56 -137 -70 -163 -23
-46 -25 -48 -46 -34 -45 29 -508 277 -652 350 -131 66 -201 95 -315 133 -75
25 -99 28 -210 27 -133 0 -243 -19 -308 -52 -66 -34 -182 -172 -241 -289 -66
-130 -114 -316 -155 -607 -98 -689 -98 -1300 0 -1810 118 -612 333 -1195 644
-1750 90 -160 105 -183 142 -216 l30 -25 -57 -175 c-98 -303 -116 -351 -180
-484 -129 -268 -268 -437 -434 -527 -27 -15 -31 -23 -31 -56 0 -89 80 -278
179 -425 80 -119 162 -216 273 -322 132 -127 243 -211 371 -276 90 -47 99 -53
82 -65 -33 -24 -105 -29 -170 -10 -102 30 -130 31 -155 6 -114 -114 271 -624
670 -888 105 -70 388 -213 535 -271 178 -70 485 -169 638 -205 589 -141 1424
-250 2262 -296 200 -11 1202 2 1540 20 382 20 958 87 1310 151 368 67 812 176
1010 247 168 61 169 61 350 156 525 274 791 466 951 686 139 191 153 224 115
271 -17 21 -27 24 -78 21 -143 -6 -333 38 -319 74 3 8 6 17 6 19 0 2 33 25 73
51 147 95 276 203 442 369 294 294 409 464 481 707 21 73 14 86 -94 159 -233
158 -403 351 -510 580 -65 138 -87 217 -122 422 l-29 171 63 70 c128 145 360
488 457 678 l60 118 73 -6 c222 -19 433 119 496 324 39 127 19 298 -48 404
l-20 31 69 67 c83 81 124 161 137 268 12 103 -1 193 -42 277 -42 87 -91 144
-170 197 -33 23 -65 47 -69 54 -4 8 -9 170 -11 361 -3 297 -6 368 -25 488 -46
298 -105 540 -199 830 -128 389 -231 498 -492 520 -72 6 -102 3 -200 -20 -63
-14 -146 -35 -185 -47 -164 -48 -462 -176 -768 -331 -119 -61 -219 -108 -222
-105 -3 3 -21 76 -40 164 -108 492 -167 664 -289 848 -82 124 -177 204 -344
291 -81 42 -116 78 -132 133 -5 20 -24 118 -41 217 -35 203 -73 316 -142 423
-53 82 -54 82 -147 121 -378 155 -964 339 -1225 385 -239 41 -702 89 -1090
111 -148 8 -310 20 -360 25 -100 11 -398 20 -460 14z m2805 -545 c113 -39 239
-82 280 -96 41 -14 80 -31 86 -37 20 -20 73 -162 94 -251 11 -49 27 -138 36
-199 8 -61 17 -119 21 -130 3 -11 1 -16 -5 -12 -20 12 -185 259 -242 361 -41
74 -61 100 -75 100 -31 0 -29 -34 8 -132 39 -103 160 -292 292 -454 164 -201
235 -308 328 -494 139 -278 197 -526 197 -847 0 -99 -3 -102 -68 -69 -60 31
-123 57 -182 75 -30 9 -73 27 -95 40 -44 25 -40 14 -75 206 -59 312 -212 802
-357 1140 -33 77 -129 259 -149 280 -20 23 -62 121 -110 259 -24 69 -49 128
-55 132 -22 13 -49 -3 -49 -28 0 -22 -2 -24 -15 -13 -8 7 -15 20 -15 30 0 10
-6 23 -14 29 -23 19 -64 181 -46 181 3 0 97 -32 210 -71z m19 -650 c29 -57 57
-110 62 -119 103 -183 409 -1133 409 -1268 l0 -34 -34 26 c-19 14 -37 26 -40
26 -3 0 -71 32 -150 70 -80 39 -150 70 -156 70 -23 0 -68 40 -75 67 -4 16 -20
87 -35 158 -15 72 -35 161 -45 198 -9 37 -14 80 -10 94 11 44 17 235 18 514 0
228 -2 270 -16 299 -9 18 -17 40 -17 49 1 17 5 11 89 -150z m856 -442 c70 -53
107 -92 156 -168 59 -90 105 -190 145 -319 24 -76 -2 -30 -46 80 -85 211 -150
302 -253 351 -43 20 -69 41 -98 80 -21 29 -39 54 -39 56 0 9 81 -40 135 -80z
m94 -277 c16 -30 49 -104 75 -165 64 -153 100 -211 151 -247 43 -31 44 -32 69
-142 14 -61 30 -134 35 -162 28 -148 94 -362 141 -453 11 -22 20 -44 20 -48 0
-4 -34 27 -75 69 -41 42 -94 85 -118 97 -24 12 -65 35 -89 51 -53 35 -53 33
-68 289 -6 91 -15 204 -20 251 -17 150 -76 343 -146 482 -25 48 -32 75 -13 48
5 -8 23 -40 38 -70z m-1089 -266 c0 -8 -4 -14 -10 -14 -5 0 -10 9 -10 21 0 11
5 17 10 14 6 -3 10 -13 10 -21z m30 -105 c0 -5 -4 -9 -10 -9 -5 0 -10 7 -10
16 0 8 5 12 10 9 6 -3 10 -10 10 -16z m3013 -95 c15 -3 27 -9 27 -13 0 -4 -29
-22 -64 -40 -169 -85 -416 -248 -561 -370 -90 -76 -369 -349 -480 -469 l-58
-63 -44 48 c-84 91 -162 218 -199 327 -13 38 -24 71 -24 72 0 12 498 265 600
304 19 7 40 17 45 21 10 7 83 37 235 96 36 14 130 43 210 64 146 39 205 43
313 23z m212 -231 c106 -225 213 -634 262 -1003 26 -194 26 -754 0 -955 -23
-179 -76 -467 -87 -479 -13 -13 -112 55 -146 99 l-27 36 24 25 c18 20 21 28
12 42 -8 13 -26 17 -84 18 -44 0 -104 9 -149 22 -81 24 -125 28 -135 12 -3 -5
-13 -35 -21 -65 -24 -96 -13 -186 17 -137 12 20 14 18 26 -31 33 -127 152
-261 301 -336 44 -22 62 -21 62 5 0 8 10 14 25 14 14 0 25 -4 25 -9 0 -16 -68
-243 -88 -296 -11 -27 -25 -51 -32 -53 -13 -5 -52 29 -82 71 -19 27 -19 27 1
53 16 21 18 30 10 46 -10 18 -18 20 -77 15 -50 -4 -82 0 -130 15 -123 38 -184
24 -153 -36 9 -15 11 -39 8 -61 -20 -123 67 -288 207 -390 36 -27 66 -54 66
-61 0 -21 -36 -96 -80 -169 -97 -159 -272 -413 -343 -500 l-25 -29 -11 59
c-14 71 -83 328 -116 437 -14 42 -31 105 -39 140 -15 66 -123 398 -149 458
-42 99 -91 241 -97 285 -8 51 -1 95 40 260 36 145 78 348 106 510 24 141 27
187 27 385 1 201 -2 235 -22 320 -33 136 -82 229 -166 315 -38 40 -88 84 -110
98 -85 56 -84 50 -33 109 102 118 381 387 526 506 126 103 546 368 590 371 6
1 37 -52 67 -116z m-10085 93 c0 -3 -6 -33 -14 -68 -38 -165 -57 -685 -37
-981 33 -479 43 -556 120 -972 80 -432 245 -919 495 -1463 l48 -103 -36 -117
c-54 -179 -91 -315 -122 -450 -16 -67 -32 -121 -37 -119 -18 6 -185 313 -283
522 -169 360 -365 1006 -423 1395 -45 302 -64 765 -41 1020 5 58 14 161 20
230 19 231 71 590 105 721 17 63 58 176 82 223 30 60 103 166 113 166 5 0 10
-2 10 -4z m6747 -266 c29 -11 30 -13 41 -113 7 -56 19 -151 27 -212 19 -140
20 -365 1 -475 -20 -118 -55 -264 -114 -475 -97 -347 -114 -463 -72 -505 27
-27 66 -26 84 3 8 12 22 56 31 97 18 87 51 212 95 360 44 145 106 400 119 490
16 105 14 346 -4 465 -16 106 -57 260 -81 307 -17 33 -18 33 82 8 43 -12 115
-29 159 -40 391 -91 716 -196 981 -315 82 -37 172 -76 199 -87 28 -11 54 -24
59 -29 6 -5 20 -9 32 -9 12 0 24 -4 26 -9 3 -10 191 -101 207 -101 6 0 45 -28
88 -63 43 -34 105 -82 138 -106 133 -98 182 -167 222 -318 23 -89 25 -116 25
-293 0 -225 -22 -392 -93 -704 -23 -99 -54 -241 -69 -313 -15 -73 -33 -139
-40 -148 -14 -17 -85 -21 -95 -5 -3 6 3 47 14 93 25 99 39 238 48 453 7 179 2
214 -27 214 -14 0 -22 -11 -30 -38 -19 -74 -41 -309 -47 -509 -3 -112 -9 -203
-12 -203 -3 0 -64 20 -136 45 -360 125 -398 136 -915 273 -287 76 -481 121
-630 147 -236 40 -482 78 -683 104 -120 16 -221 31 -224 35 -4 3 30 6 74 6 75
0 80 2 93 25 18 34 1 35 305 -25 88 -18 264 -49 390 -69 127 -21 240 -43 253
-50 12 -6 27 -9 32 -6 5 3 96 7 202 9 182 3 199 5 302 35 60 17 143 48 186 69
l77 37 -14 -44 c-17 -57 -17 -115 1 -130 11 -9 19 -5 40 20 38 45 47 66 110
249 72 214 120 413 142 590 16 126 16 158 5 274 -15 152 -34 265 -61 354 -25
82 -37 102 -59 102 -38 0 -40 -47 -10 -227 15 -92 21 -175 21 -293 0 -144 -4
-186 -31 -335 -33 -173 -80 -366 -108 -442 -15 -40 -18 -43 -72 -53 -31 -7
-85 -20 -121 -30 -134 -39 -219 -52 -377 -57 -179 -6 -176 -7 -152 54 16 41
73 231 108 358 39 144 78 352 91 490 26 284 -3 815 -45 815 -7 0 -15 -10 -19
-22 -9 -34 -24 -219 -36 -438 -20 -367 -46 -540 -140 -930 -17 -69 -40 -169
-52 -223 l-22 -99 -60 7 c-195 21 -770 125 -787 142 -9 9 33 101 50 113 17 12
51 70 51 87 1 10 14 41 30 68 16 28 32 57 36 65 3 8 11 26 18 40 8 14 21 49
30 78 10 28 21 52 25 52 13 0 31 49 31 81 0 16 7 43 15 58 13 26 24 95 44 270
11 104 3 597 -10 646 -7 22 -18 54 -25 72 -8 17 -14 46 -14 65 0 42 -23 107
-41 119 -20 13 50 12 88 -1z m-742 -400 c380 -14 380 -14 396 -249 5 -75 14
-174 19 -221 32 -276 32 -369 0 -517 -21 -94 -75 -150 -157 -164 -26 -4 -236
-8 -465 -8 l-418 -1 -6 25 c-3 14 -4 31 -1 39 3 8 2 16 -3 18 -5 2 -11 15 -15
29 -5 22 -1 28 37 48 85 44 114 82 104 136 -5 23 -2 36 9 45 23 19 45 65 45
93 0 13 -13 41 -30 62 -30 37 -40 88 -20 100 5 3 19 38 31 77 47 155 -4 346
-99 364 -23 4 -55 -2 -108 -21 -42 -14 -78 -24 -81 -21 -3 3 0 33 6 67 6 34 8
66 5 70 -3 5 0 18 7 30 11 22 11 22 258 15 135 -4 354 -11 486 -16z m4491
-1667 c8 -53 -14 -118 -51 -153 -14 -13 -27 -22 -29 -19 -2 3 31 195 43 249 4
17 31 -40 37 -77z m169 -6 c42 -6 47 -16 40 -81 -16 -146 -119 -270 -258 -311
-101 -29 -241 -17 -315 28 l-34 20 35 35 35 35 49 -13 c73 -21 142 -16 204 15
103 52 161 129 175 236 6 43 9 48 28 44 11 -3 30 -6 41 -8z m-4917 -119 c27 0
27 -4 1 -98 -36 -130 -37 -296 -3 -421 5 -20 52 -27 279 -44 90 -6 170 -16
195 -25 14 -5 79 -11 145 -15 66 -3 143 -10 170 -16 28 -5 93 -16 145 -24 52
-8 129 -20 170 -26 41 -7 80 -15 85 -20 6 -4 33 -10 60 -14 89 -12 155 -26
183 -41 15 -7 35 -11 45 -8 10 3 24 1 31 -6 8 -6 38 -13 67 -17 30 -3 64 -12
76 -19 12 -8 50 -20 83 -28 34 -8 72 -22 85 -30 13 -9 32 -16 41 -16 32 0 169
-44 177 -57 5 -7 27 -13 52 -13 32 0 51 -7 73 -25 19 -16 42 -25 65 -25 31 0
35 -3 41 -32 10 -54 61 -132 107 -163 39 -28 49 -30 135 -30 89 0 95 1 174 43
89 46 102 49 119 28 11 -13 69 -28 116 -31 29 -2 75 -15 113 -32 25 -11 77
-15 206 -16 l172 -1 37 -101 c73 -202 151 -527 197 -815 26 -164 87 -350 164
-503 69 -135 95 -176 113 -177 7 0 16 -6 20 -14 47 -82 271 -295 399 -379 35
-23 64 -49 64 -57 0 -28 -88 -188 -148 -270 -120 -164 -326 -377 -523 -542
-30 -26 -113 -85 -185 -132 -191 -126 -184 -119 -184 -174 1 -105 108 -187
284 -217 49 -8 91 -17 93 -18 10 -11 -75 -116 -166 -207 -309 -307 -949 -632
-1520 -771 -464 -113 -496 -119 -776 -163 -581 -91 -1039 -125 -1940 -146
-496 -11 -662 -6 -1150 35 -511 43 -912 93 -1275 161 -632 117 -852 186 -1400
441 -93 43 -325 184 -342 207 -21 29 -18 97 7 171 39 117 60 150 122 197 97
71 192 103 493 168 489 104 659 178 733 315 17 32 22 57 22 120 -1 70 -4 87
-30 134 -38 69 -114 136 -217 191 -46 24 -87 49 -93 56 -5 7 -46 27 -90 45
-92 36 -125 56 -125 74 0 7 -20 18 -44 24 -30 7 -65 29 -108 67 -35 30 -91 69
-125 86 -43 21 -63 36 -63 48 0 11 -4 21 -9 24 -16 10 -33 151 -29 241 4 82
10 110 41 185 6 14 11 37 13 52 2 31 25 83 61 140 12 21 23 43 23 51 0 16 55
123 80 155 11 14 20 36 20 49 0 28 14 57 46 96 13 16 24 37 24 47 0 9 6 23 14
30 8 6 16 27 18 47 3 33 6 36 69 58 36 12 80 26 96 29 l30 7 6 -134 c8 -151
22 -232 66 -362 16 -49 29 -90 28 -91 -1 -1 -21 -11 -45 -23 -61 -31 -74 -78
-31 -117 13 -12 26 -14 46 -9 15 3 107 22 203 41 430 83 857 46 1270 -112 57
-22 95 -13 115 26 20 39 6 74 -40 101 -19 12 -35 24 -35 27 0 4 9 36 20 71 30
95 46 278 33 387 -5 49 -8 91 -7 93 4 5 148 -74 202 -110 76 -51 142 -32 142
41 0 30 -6 42 -37 66 -149 118 -408 220 -728 288 -402 85 -678 81 -1160 -18
-66 -13 -128 -27 -137 -31 -29 -12 -22 41 12 97 20 32 30 61 30 88 0 21 4 41
9 45 15 9 40 64 47 104 4 20 12 43 19 51 7 8 15 32 19 53 4 20 11 37 16 37 6
0 10 10 10 23 0 12 9 33 20 47 11 14 20 34 20 46 0 11 14 41 30 67 17 26 30
54 30 62 0 7 4 16 9 20 6 3 16 18 24 33 24 48 42 77 52 84 5 4 10 13 10 20 1
20 28 72 42 81 7 4 13 15 13 24 0 17 65 83 81 83 5 0 33 12 62 26 28 15 63 32
77 39 14 7 42 15 63 19 20 4 37 11 37 17 0 15 57 36 119 44 30 4 69 15 87 25
17 10 67 24 110 30 44 7 88 16 99 20 11 4 70 15 130 24 61 9 124 21 140 27 17
5 80 13 140 19 61 5 146 14 190 20 44 6 100 12 125 14 25 1 56 5 70 9 14 4 53
8 87 11 l62 4 40 -61 c22 -34 67 -118 100 -187 81 -169 101 -190 183 -190 38
0 49 5 85 43 61 62 88 126 142 334 69 263 102 337 164 370 41 21 57 10 137
-88 72 -90 118 -119 182 -119 90 1 164 75 258 258 50 99 120 203 156 233 17
14 239 28 334 20 25 -1 55 -3 68 -3z m4596 -480 c44 -68 39 -169 -11 -229 -26
-30 -109 -76 -120 -66 -6 7 35 145 46 151 4 3 18 41 31 86 12 44 27 80 31 80
5 0 15 -10 23 -22z m224 -100 c23 -8 24 -11 17 -71 -22 -193 -180 -330 -380
-330 -77 0 -171 23 -204 50 l-22 18 35 34 c33 32 35 33 73 20 66 -22 155 -15
217 16 99 50 154 127 170 237 7 47 7 47 39 41 18 -3 43 -10 55 -15z m-8199
-1578 c28 -15 44 -61 32 -93 -22 -58 -153 -97 -206 -63 -62 41 -50 107 27 145
45 22 117 28 147 11z m149 -176 c38 -26 45 -59 23 -108 -24 -56 -78 -97 -136
-103 -39 -5 -47 -2 -75 25 -37 37 -39 76 -7 123 45 67 144 99 195 63z"/>
<path d="M13950 12238 c0 -8 16 -47 36 -88 69 -144 74 -165 84 -324 5 -82 13
-153 18 -158 15 -15 33 49 39 142 8 124 -19 216 -99 338 -63 96 -78 113 -78
90z"/>
<path d="M13776 12198 c-3 -7 -10 -78 -16 -158 -14 -186 -39 -403 -52 -460 -5
-25 -20 -99 -33 -165 -13 -66 -37 -187 -55 -270 -80 -379 -80 -384 -55 -405
23 -19 51 -2 70 43 33 80 36 91 66 216 119 498 162 883 126 1126 -9 62 -16 81
-30 83 -9 2 -19 -2 -21 -10z"/>
<path d="M12195 8980 c-38 -4 -104 -15 -145 -23 -41 -9 -96 -19 -122 -22 -26
-4 -53 -13 -59 -21 -6 -8 -20 -14 -30 -14 -35 0 -256 -78 -360 -127 -162 -77
-340 -199 -354 -243 -8 -26 10 -50 39 -50 11 0 62 23 111 51 50 28 115 63 146
79 l56 29 0 -147 c0 -166 15 -251 62 -364 23 -53 28 -74 19 -77 -24 -8 -68
-59 -68 -79 0 -25 31 -52 61 -52 13 0 59 14 101 30 42 16 105 34 140 40 35 5
113 19 173 30 178 35 240 40 440 41 197 1 233 -3 475 -45 187 -33 215 -33 236
-1 9 14 13 32 9 44 -7 24 -51 57 -88 66 l-26 7 21 41 c73 144 110 345 89 489
-6 45 -9 83 -7 85 2 2 37 -7 78 -21 97 -34 142 -34 164 -1 26 41 12 91 -34
114 -48 24 -196 65 -397 108 -155 34 -168 35 -410 38 -137 2 -281 0 -320 -5z
m-270 -321 c25 -24 25 -81 0 -109 -24 -26 -118 -54 -158 -46 -46 9 -67 33 -67
77 0 31 6 42 33 63 61 47 151 54 192 15z m134 -159 c10 -5 24 -23 31 -39 25
-61 -51 -160 -136 -177 -63 -12 -125 50 -110 110 9 35 55 86 91 102 36 16 99
18 124 4z"/>
<path d="M9890 7910 c-67 -8 -109 -29 -144 -70 -33 -40 -35 -110 -6 -173 49
-103 201 -249 276 -263 140 -26 360 256 316 403 -19 62 -79 93 -200 104 -110
9 -164 9 -242 -1z m306 -145 c14 -36 -112 -225 -151 -225 -36 0 -185 165 -185
205 0 29 14 31 203 33 104 2 129 -1 133 -13z"/>
<path d="M9646 7068 c-22 -31 -20 -64 4 -88 19 -19 33 -20 389 -20 l370 0 15
22 c22 31 20 64 -4 88 -19 19 -33 20 -389 20 l-370 0 -15 -22z"/>
</g>
</svg>
